<svg width="100%" height="100%" viewBox="130 0 370 210" fill="none" xmlns="http://www.w3.org/2000/svg" preserveAspectRatio="none">
    <path d="M162.76 2.40625C170.63 1.76559 179.029 2.06756 187.399 2.09277C190.421 2.08736 193.444 2.07997 196.466 2.07129H196.467C204.662 2.0531 212.855 2.06055 221.047 2.07324L221.046 2.07422C229.63 2.08436 238.214 2.07365 246.802 2.06738L268.433 2.06836C275.643 2.07222 282.853 2.07934 290.063 2.08887C306.711 2.11061 323.358 2.10306 340.006 2.08105L361.48 2.06543C368.639 2.06383 375.797 2.06606 382.955 2.07129C391.495 2.07751 400.035 2.07867 408.573 2.06543C416.609 2.05384 424.644 2.06192 432.68 2.08496L432.679 2.08594C435.616 2.09119 438.553 2.08891 441.489 2.08008H441.49C456.152 2.04005 463.669 2.01561 468.888 2.59766C473.598 3.12302 476.496 4.15052 480.878 5.94336L482.856 6.75879L483.02 6.82715L483.168 6.92188C484.739 7.92494 485.675 8.51849 486.418 9.12891C487.195 9.76784 487.751 10.4162 488.6 11.3975L490.469 13.4531L490.506 13.4941L490.542 13.5381C491.264 14.4285 491.266 14.4311 491.999 15.335C492.035 15.378 491.981 15.3134 492.037 15.3799C492.038 15.3809 492.048 15.3932 492.05 15.3955C492.043 15.3875 492.052 15.3976 492.057 15.4033C492.058 15.4045 492.059 15.406 492.06 15.4072C492.061 15.4085 492.062 15.4098 492.063 15.4111C492.139 15.5009 492.014 15.3524 492.089 15.4424C492.139 15.5023 492.091 15.444 492.141 15.5039L492.167 15.5352C492.17 15.5385 492.177 15.5479 492.18 15.5508C492.205 15.5809 492.167 15.5352 492.192 15.5654C492.287 15.6789 492.149 15.5144 492.244 15.6279L492.348 15.751C492.385 15.7954 492.362 15.7691 492.399 15.8135C492.466 15.8934 492.54 15.9814 492.607 16.0615C492.621 16.078 492.645 16.1076 492.659 16.124C492.737 16.2165 492.633 16.0929 492.711 16.1855C492.753 16.236 492.773 16.26 492.815 16.3105C492.821 16.3168 492.916 16.4305 492.92 16.4346C492.946 16.4663 492.906 16.4189 492.933 16.4502C492.934 16.4514 492.935 16.4529 492.936 16.4541C492.937 16.4554 492.938 16.4567 492.939 16.458C492.941 16.4593 492.944 16.464 492.945 16.4658L493.024 16.5596C493.034 16.5709 493.021 16.5568 493.03 16.5674L493.044 16.583C493.045 16.5842 493.046 16.5857 493.047 16.5869C493.048 16.5882 493.05 16.5895 493.051 16.5908L493.076 16.6221C493.109 16.6608 493.07 16.6155 493.103 16.6543C493.114 16.6681 493.105 16.656 493.116 16.6699C493.125 16.6805 493.12 16.6745 493.129 16.6855L493.234 16.8105C493.251 16.8298 493.231 16.8073 493.247 16.8262C493.273 16.8574 493.235 16.8108 493.261 16.8418C493.289 16.8761 493.258 16.8397 493.287 16.874C493.348 16.9464 493.279 16.8637 493.34 16.9365C493.362 16.9633 493.37 16.9732 493.393 17C493.406 17.0164 493.405 17.0147 493.419 17.0312C493.43 17.0443 493.421 17.0343 493.432 17.0469C493.442 17.0595 493.435 17.0509 493.445 17.0635C493.564 17.2055 493.432 17.0475 493.551 17.1895L493.657 17.3174L494.067 17.8066L494.117 18.4434C494.294 20.6917 494.356 22.9299 494.369 25.1426L494.389 27.208V27.21C494.407 29.5088 494.414 31.8067 494.42 34.0986L494.453 39.0215V39.0225C494.482 43.494 494.5 47.9653 494.514 52.4346C494.522 55.2257 494.532 58.0169 494.543 60.8086C494.575 69.5453 494.598 78.2825 494.612 87.0195C494.625 94.5786 494.653 102.138 494.694 109.697L494.74 117.256V117.257C494.791 125.054 494.816 132.85 494.821 140.646L494.837 147.62C494.846 149.944 494.861 152.268 494.882 154.591V154.592C494.921 158.983 494.927 163.373 494.91 167.762C494.91 168.557 494.913 169.353 494.918 170.148L494.943 172.54V172.542C495.001 176.792 495.046 180.076 494.916 182.659C494.786 185.241 494.475 187.321 493.717 189.108C492.174 192.747 488.946 194.656 484.069 197.681L484.011 197.717L483.95 197.749C474.825 202.571 467.884 203.771 456.201 203.741C454.936 203.746 453.668 203.751 452.364 203.756H452.363C448.115 203.769 443.867 203.766 439.623 203.765L430.495 203.785C426.359 203.794 422.223 203.8 418.087 203.804L405.68 203.809C398.775 203.81 391.871 203.818 384.965 203.825C368.668 203.841 352.371 203.846 336.074 203.845C319.273 203.844 302.471 203.865 285.669 203.896C271.238 203.923 256.807 203.933 242.376 203.932C233.76 203.931 225.145 203.937 216.531 203.958C208.42 203.977 200.31 203.978 192.199 203.964C189.232 203.962 186.265 203.966 183.298 203.979H183.297C179.229 203.994 175.164 203.984 171.103 203.969C169.938 203.979 168.774 203.989 167.574 204H167.54C157.213 203.914 147.848 201.866 140.253 197.385L140.057 197.269L139.892 197.111C139.286 196.536 138.68 195.96 138.056 195.367V195.366C137.431 194.798 136.805 194.23 136.161 193.645L136.09 193.578L136.024 193.506C134.067 191.342 133.045 189.254 132.539 187.068C132.054 184.972 132.064 182.835 132.045 180.76L132.02 178.669V178.667C131.993 176.346 131.979 174.025 131.965 171.711C131.949 170.052 131.932 168.392 131.915 166.733V166.732C131.889 164.002 131.868 161.272 131.849 158.543L131.798 150.357C131.792 149.429 131.787 148.5 131.781 147.544C131.73 138.784 131.685 130.022 131.656 121.261C131.62 110.066 131.55 98.8733 131.434 87.6807V87.6797C131.354 79.7967 131.314 71.9146 131.302 64.0332L131.292 60.5098C131.283 58.1618 131.268 55.8149 131.244 53.4688L131.202 49.9502C131.14 45.5115 131.126 41.0749 131.148 36.6396L131.136 34.2305C131.127 33.4275 131.113 32.6248 131.109 31.8223V31.8193C131.016 28.0231 130.953 25.0852 131.046 22.7637C131.138 20.4418 131.389 18.5558 132.024 16.9072C133.32 13.5471 136.081 11.6441 140.211 8.66797L140.299 8.60449L140.394 8.55176C147.255 4.65615 154.847 3.05039 162.76 2.40625Z" fill="#35383D" stroke="#9F9F9F" stroke-width="4"></path>
    <g filter="url(#filter0_i_520_709)"><path d="M302.578 84.0117C304.279 84.0059 304.279 84.0059 306.015 84C307.191 84.0116 308.366 84.0232 309.578 84.0352C310.753 84.0236 311.929 84.012 313.14 84C314.274 84.0039 315.409 84.0077 316.578 84.0117C317.609 84.0151 318.64 84.0185 319.703 84.022C323.921 84.5915 326.576 86.2703 329.363 89.4414C331.189 93.9041 331.051 98.1349 331.015 102.91C331.045 104.316 331.045 104.316 331.076 105.75C331.073 110.038 331.001 112.688 328.8 116.441C323.119 121.473 317.41 120.743 310.14 120.723C309.008 120.739 307.875 120.755 306.708 120.771C305.615 120.772 304.521 120.773 303.394 120.773C302.398 120.776 301.403 120.779 300.377 120.782C295.893 120.186 292.454 117.862 289.578 114.41C288.197 110.269 288.354 106.373 288.328 102.035C288.307 101.184 288.286 100.334 288.265 99.457C288.235 94.6482 288.301 91.2142 291.578 87.4102C295.346 84.7057 297.965 84.0269 302.578 84.0117Z" fill="#76797C"></path></g>
    <path d="M306.035 82C307.204 82.0115 308.373 82.0233 309.578 82.0352C310.747 82.0236 311.916 82.0119 313.121 82H313.147L316.584 82.0117C317.616 82.0151 318.647 82.019 319.709 82.0225H319.84L319.97 82.04C324.749 82.6853 327.82 84.6566 330.865 88.1211L331.086 88.373L331.213 88.6836C333.219 93.586 333.051 98.2448 333.015 102.925C333.044 104.273 333.045 104.293 333.075 105.707L333.076 105.729V105.751C333.073 110.099 333.012 113.213 330.526 117.453L330.365 117.728L330.126 117.938C323.757 123.58 317.12 122.744 310.155 122.723C309.027 122.739 307.899 122.755 306.737 122.771H306.709C305.617 122.772 304.524 122.772 303.399 122.772L303.4 122.773C302.404 122.776 301.408 122.779 300.382 122.782L300.248 122.783L300.113 122.765C295.014 122.086 291.154 119.425 288.042 115.69L287.799 115.4L287.68 115.043C286.176 110.529 286.353 106.256 286.328 102.047L286.329 102.046C286.308 101.208 286.287 100.369 286.266 99.5059L286.265 99.4873V99.4697C286.235 94.6399 286.262 90.5164 290.062 86.1045L290.218 85.9238L290.412 85.7852C292.414 84.3482 294.21 83.378 296.187 82.7861C298.151 82.1981 300.176 82.0196 302.571 82.0117L306.008 82H306.035Z" stroke="black" stroke-width="4"></path>
    <g filter="url(#filter1_i_520_709)"><path d="M391.392 84.0117C393.094 84.0059 393.094 84.0059 394.83 84C396.005 84.0116 397.181 84.0232 398.392 84.0352C399.568 84.0236 400.743 84.012 401.955 84C403.089 84.0039 404.223 84.0077 405.392 84.0117C406.423 84.0151 407.455 84.0185 408.517 84.022C412.735 84.5915 415.39 86.2703 418.177 89.4414C420.003 93.9041 419.866 98.1349 419.83 102.91C419.859 104.316 419.859 104.316 419.89 105.75C419.887 110.038 419.815 112.688 417.615 116.441C411.934 121.473 406.224 120.743 398.955 120.723C397.822 120.739 396.69 120.755 395.523 120.771C394.429 120.772 393.335 120.773 392.208 120.773C391.213 120.776 390.217 120.779 389.191 120.782C384.708 120.186 381.268 117.862 378.392 114.41C377.012 110.269 377.168 106.373 377.142 102.035C377.121 101.184 377.101 100.334 377.08 99.457C377.05 94.6482 377.115 91.2142 380.392 87.4102C384.161 84.7057 386.779 84.0269 391.392 84.0117Z" fill="#76797C"></path></g>
    <path d="M394.849 82C396.018 82.0115 397.188 82.0233 398.392 82.0352C399.561 82.0236 400.731 82.0119 401.935 82H401.961L405.399 82.0117C406.43 82.0151 407.462 82.019 408.524 82.0225H408.655L408.785 82.04C413.564 82.6853 416.634 84.6566 419.679 88.1211L419.901 88.373L420.028 88.6836C422.034 93.586 421.865 98.2448 421.83 102.925C421.858 104.273 421.859 104.293 421.889 105.707L421.89 105.729V105.751C421.887 110.099 421.826 113.213 419.34 117.453L419.179 117.728L418.941 117.938C412.571 123.58 405.935 122.744 398.969 122.723C397.841 122.739 396.713 122.755 395.551 122.771H395.524C394.431 122.772 393.339 122.772 392.213 122.772L392.214 122.773C391.219 122.776 390.223 122.779 389.197 122.782L389.062 122.783L388.927 122.765C383.828 122.086 379.968 119.425 376.856 115.69L376.614 115.4L376.495 115.043C374.99 110.529 375.167 106.256 375.142 102.047L375.143 102.046C375.123 101.208 375.101 100.369 375.081 99.5059L375.08 99.4873V99.4697C375.049 94.6399 375.076 90.5164 378.876 86.1045L379.033 85.9238L379.226 85.7852C381.229 84.3482 383.025 83.378 385.001 82.7861C386.966 82.1981 388.99 82.0196 391.385 82.0117L394.823 82H394.849Z" stroke="black" stroke-width="4"></path>
    <path d="M224.122 82.0176C226.835 81.9977 228.936 81.9822 230.601 82.043C232.263 82.1037 233.622 82.243 234.83 82.582C237.035 83.2013 238.494 84.4395 240.355 86.1846L241.182 86.9639L241.347 87.1201L241.473 87.3086C244.849 92.3724 244.182 97.3539 244.184 102.244L244.258 105.256V105.297C244.276 109.743 244.308 113.091 241.768 117.489L241.6 117.779L241.346 118C234.972 123.523 228.429 122.787 221.467 122.793C220.346 122.817 219.226 122.842 218.071 122.867H218.035C214.905 122.878 212.048 122.878 209.364 122.251C206.588 121.602 204.065 120.308 201.45 117.886L201.276 117.725L201.145 117.527C197.696 112.354 198.397 107.068 198.371 102.073C198.323 100.544 198.322 100.533 198.272 98.9502V98.9258L198.271 98.9014C198.245 95.1949 198.213 92.9422 198.659 91.1748C199.145 89.2507 200.185 87.9327 201.618 86.0449L201.805 85.7988L202.057 85.6211C208.182 81.2921 214.35 82.1555 220.543 82.1055V82.1064C221.713 82.0777 222.883 82.0482 224.088 82.0186L224.105 82.0176H224.122Z" fill="#777A7D" stroke="black" stroke-width="4"></path>
    <path d="M326.973 12.2875C331.777 14.9447 335.023 18.3755 336.786 23.6625C337.32 29.6273 337.338 34.62 333.786 39.6625C329.482 43.9865 326.359 46.4444 320.098 46.975C314.101 46.8867 309.549 44.472 305.411 40.225C302.203 35.1667 300.887 30.6898 301.786 24.6625C303.569 19.351 306.028 15.7549 310.786 12.6625C311.384 12.25 311.982 11.8375 312.598 11.4125C317.667 9.67467 322.187 10.1162 326.973 12.2875Z" fill="#424548"></path>
    <path d="M168.993 12.3454C174.187 15.0726 176.969 19.2118 178.786 24.6618C179.222 30.2207 178.58 34.8352 175.786 39.6618C171.256 44.7168 167.651 46.4769 160.911 46.9118C156.035 46.8124 152.644 45.5029 149.118 42.0094C144.767 37.1212 143.469 33.5467 143.575 27.0055C144.041 21.825 145.95 18.1222 149.848 14.7868C155.489 10.706 162.28 10.2663 168.993 12.3454Z" fill="#414447"></path>
    <path d="M328.922 161.384C332.774 164.025 335.297 167.195 336.785 171.662C337.569 178.176 336.574 183.26 332.785 188.662C327.62 193.575 322.885 194.242 315.942 194.209C310.512 193.268 307.098 189.918 303.785 185.662C301.375 180.655 300.729 175.809 302.508 170.509C304.96 165.179 307.929 162.165 313.16 159.412C319.115 157.711 323.603 158.482 328.922 161.384Z" fill="#424447"></path>
    <path d="M168.012 159.569C173.468 162.756 176.761 166.588 178.785 172.662C179.373 178.65 178.133 182.779 174.785 187.662C170.704 191.978 166.894 193.802 160.973 193.975C156.099 193.911 153.516 192.959 149.785 189.662C145.04 184.724 143.409 180.786 143.508 174.006C144.129 168.757 146.953 165.187 150.848 161.787C155.984 158.072 162.05 157.142 168.012 159.569Z" fill="#424447"></path>
    <path d="M326.973 12.2875C331.777 14.9447 335.023 18.3755 336.786 23.6625C337.32 29.6273 337.338 34.62 333.786 39.6625C329.482 43.9865 326.359 46.4444 320.098 46.975C314.101 46.8867 309.549 44.472 305.411 40.225C302.203 35.1667 300.887 30.6898 301.786 24.6625C303.569 19.351 306.028 15.7549 310.786 12.6625C311.384 12.25 311.982 11.8375 312.598 11.4125C317.667 9.67467 322.187 10.1162 326.973 12.2875ZM308.473 20.225C305.625 24.3398 305.143 27.7171 305.786 32.6625C307.11 36.3047 309.056 39.016 311.973 41.6C315.993 43.1185 319.545 43.3357 323.786 42.6625C328.169 40.471 330.986 38.2606 332.786 33.6625C333.466 28.6484 333.339 24.8338 331.161 20.225C327.741 16.5355 324.785 14.9124 319.786 14.2875C314.857 14.9036 311.797 16.5419 308.473 20.225Z" fill="#030304"></path>
    <path d="M459.724 12.9448C464.527 15.6019 467.774 19.0327 469.536 24.3198C470.07 30.2845 470.089 35.2772 466.536 40.3198C462.233 44.6438 459.11 47.1017 452.849 47.6323C446.852 47.5439 442.299 45.1292 438.161 40.8823C434.953 35.8239 433.637 31.347 434.536 25.3198C436.32 20.0082 438.779 16.4122 443.536 13.3198C444.134 12.9073 444.732 12.4948 445.349 12.0698C450.417 10.3319 454.938 10.7734 459.724 12.9448ZM441.224 20.8823C438.375 24.997 437.893 28.3744 438.536 33.3198C439.861 36.9619 441.806 39.6733 444.724 42.2573C448.743 43.7757 452.295 43.9929 456.536 43.3198C460.919 41.1283 463.737 38.9178 465.536 34.3198C466.217 29.3056 466.09 25.491 463.911 20.8823C460.492 17.1927 457.535 15.5696 452.536 14.9448C447.607 15.5609 444.548 17.1991 441.224 20.8823Z" fill="#030304"></path>
    <path d="M459.724 157.945C464.527 160.602 467.774 164.033 469.536 169.32C470.07 175.285 470.089 180.277 466.536 185.32C462.233 189.644 459.11 192.102 452.849 192.632C446.852 192.544 442.299 190.129 438.161 185.882C434.953 180.824 433.637 176.347 434.536 170.32C436.32 165.008 438.779 161.412 443.536 158.32C444.134 157.907 444.732 157.495 445.349 157.07C450.417 155.332 454.938 155.773 459.724 157.945ZM441.224 165.882C438.375 169.997 437.893 173.374 438.536 178.32C439.861 181.962 441.806 184.673 444.724 187.257C448.743 188.776 452.295 188.993 456.536 188.32C460.919 186.128 463.737 183.918 465.536 179.32C466.217 174.306 466.09 170.491 463.911 165.882C460.492 162.193 457.535 160.57 452.536 159.945C447.607 160.561 444.548 162.199 441.224 165.882Z" fill="#030304"></path>
    <path d="M168.993 12.3454C174.187 15.0726 176.969 19.2118 178.786 24.6618C179.222 30.2207 178.58 34.8352 175.786 39.6618C171.256 44.7168 167.651 46.4769 160.911 46.9118C156.035 46.8124 152.644 45.5029 149.118 42.0094C144.767 37.1212 143.469 33.5467 143.575 27.0055C144.041 21.825 145.95 18.1222 149.848 14.7868C155.489 10.706 162.28 10.2663 168.993 12.3454ZM149.411 20.7868C147.001 25.0495 147.027 28.877 147.786 33.6618C149.95 38.0701 152.211 40.7902 156.786 42.6618C163.168 43.3823 166.627 42.5058 171.786 38.6618C174.529 34.7683 175.329 31.2949 175.141 26.6188C174.394 22.5046 171.861 19.8162 169.098 16.8493C161.008 12.695 155.839 15.0355 149.411 20.7868Z" fill="#020203"></path>
    <path d="M168.012 159.569C173.468 162.756 176.761 166.588 178.785 172.662C179.373 178.65 178.133 182.779 174.785 187.662C170.704 191.978 166.894 193.802 160.973 193.975C156.099 193.911 153.516 192.959 149.785 189.662C145.04 184.724 143.409 180.786 143.508 174.006C144.129 168.757 146.953 165.187 150.848 161.787C155.984 158.072 162.05 157.142 168.012 159.569ZM148.91 168.85C147.306 172.86 147.102 176.403 147.785 180.662C149.853 184.649 152.001 187.278 155.785 189.662C160.671 190.557 164.743 190.155 169.223 188.037C173.103 184.441 174.556 181.463 175.223 176.225C174.567 170.882 172.71 167.367 168.598 163.725C160.715 160.747 154.432 162.408 148.91 168.85Z" fill="#020304"></path>
    <path d="M328.922 161.384C332.774 164.025 335.297 167.195 336.785 171.662C337.569 178.176 336.574 183.26 332.785 188.662C327.62 193.575 322.885 194.242 315.942 194.209C310.512 193.268 307.098 189.918 303.785 185.662C301.375 180.655 300.729 175.809 302.508 170.509C304.96 165.179 307.929 162.165 313.16 159.412C319.115 157.711 323.603 158.482 328.922 161.384ZM308.473 168.224C305.636 172.322 305.115 175.73 305.785 180.662C307.816 184.505 309.904 187.613 313.785 189.662C319.514 191.094 322.954 190.865 328.086 187.88C330.695 186.009 331.72 184.724 332.785 181.662C333.454 176.61 333.364 172.84 331.098 168.224C327.685 164.443 325.467 162.845 320.348 162.287C315.099 162.839 312.015 164.299 308.473 168.224Z" fill="#020304"></path>
    <path d="M165.786 20.6617C168.286 22.1617 168.286 22.1617 169.786 24.6617C170.496 29.6316 170.577 31.5109 167.723 35.6617C164.008 38.1915 162.197 38.4495 157.786 37.6617C154.094 35.0695 152.957 33.6202 152.161 29.1617C152.786 25.6617 152.786 25.6617 154.786 22.7242C158.936 19.8705 160.816 19.9517 165.786 20.6617Z" fill="#060606"></path>
    <path d="M321.657 20.2519C323.786 20.6621 323.786 20.6621 326.348 22.1621C328.384 25.7029 328.58 28.674 327.786 32.6621C325.675 35.955 324.142 36.5498 320.411 37.7246C316.786 37.6621 316.786 37.6621 313.348 35.6621C310.786 32.6621 310.786 32.6621 310.161 29.1621C311.455 21.9149 314.585 19.7976 321.657 20.2519Z" fill="#060606"></path>
    <path d="M454.407 20.9091C456.536 21.3193 456.536 21.3193 459.099 22.8193C461.135 26.3602 461.33 29.3312 460.536 33.3193C458.425 36.6122 456.893 37.207 453.161 38.3818C449.536 38.3193 449.536 38.3193 446.099 36.3193C443.536 33.3193 443.536 33.3193 442.911 29.8193C444.205 22.5721 447.336 20.4548 454.407 20.9091Z" fill="#060606"></path>
    <path d="M454.407 165.909C456.536 166.319 456.536 166.319 459.099 167.819C461.135 171.36 461.33 174.331 460.536 178.319C458.425 181.612 456.893 182.207 453.161 183.382C449.536 183.319 449.536 183.319 446.099 181.319C443.536 178.319 443.536 178.319 442.911 174.819C444.205 167.572 447.336 165.455 454.407 165.909Z" fill="#060606"></path>
    <path d="M323.786 168.662C326.223 170.224 326.223 170.224 327.786 172.662C328.58 176.65 328.384 179.621 326.348 183.162C322.54 185.391 319.084 185.569 314.786 184.662C311.717 182.117 310.937 180.572 310.286 176.662C310.901 172.97 312.202 171.322 314.786 168.662C317.971 167.069 320.388 167.9 323.786 168.662Z" fill="#070707"></path>
    <path d="M160.723 167.037C164.976 167.905 166.905 169.439 169.786 172.662C170.473 176.162 170.473 176.162 169.786 179.662C167.193 183.354 165.744 184.491 161.286 185.287C156.827 184.491 155.378 183.354 152.786 179.662C152.161 176.162 152.161 176.162 152.786 172.662C155.207 169.315 156.66 167.902 160.723 167.037Z" fill="#070708"></path>
    <path d="M331.786 173.662C332.116 173.662 332.446 173.662 332.786 173.662C332.786 175.642 332.786 177.622 332.786 179.662C331.136 179.992 329.486 180.322 327.786 180.662C328.116 179.012 328.446 177.362 328.786 175.662C329.446 175.992 330.106 176.322 330.786 176.662C331.116 175.672 331.446 174.682 331.786 173.662Z" fill="#474B4E"></path>
    <rect x="163.76" y="60.5" width="303" height="82" rx="19.5" stroke="black" stroke-width="7"></rect>
</svg>